<svg xmlns="http://www.w3.org/2000/svg" viewBox="0 0 289.42 423.17"><defs><style>.cls-1{fill:#534e60;}.cls-2{fill:#a62a2a;}.cls-3{fill:#14121d;}.cls-4{fill:#e4e3e9;}.cls-5{fill:#f7941d;}.cls-6{fill:#fafafa;}.cls-7{fill:#8b8792;}.cls-8{fill:#745d9a;}.cls-9{fill:#bbbac2;}.cls-10{fill:#fff;}.cls-11{fill:#7d7987;}.cls-12{fill:#5c5766;}.cls-13{fill:#a5a2ad;}.cls-14{fill:#544e61;}</style></defs><g id="Layer_2" data-name="Layer 2"><g id="Layer_1-2" data-name="Layer 1"><path class="cls-1" d="M147.34,316q-.06,53.51,0,107H120.65q0-9.24,0-18.49,0-47.43,0-94.85Z"/><path class="cls-2" d="M118.87,306.84q-11.2-1.89-22.36-4c-1.43-.27-1.92.12-2.12,1.46-.41,2.68-.86,5.36-1.39,8-4.58,23-10.17,45.68-19.79,67.16-4.07,9.07-8.35,18.09-15.85,25-3.74,2.65-5.38,2.27-7.69-1.79.86-.33.74-1.1.83-1.8.52-4.18,1-8.36,1.59-12.53,1-7.28,2.1-14.55,3.15-21.83q1.84-12.91,3.7-25.85c1.34-9.25,2.72-18.49,4.06-27.74.57-3.93,1.1-7.87,1.65-11.8.22,2.14,1.1.13,1.64.26a71.88,71.88,0,0,1-1.12,8.26c-1.25,8.69-2.47,17.38-3.74,26.07-1.31,9-2.69,18.08-4,27.12-1.42,9.82-2.84,19.64-4.18,29.47a65.9,65.9,0,0,0-1,9.8c0,2.14,1,2.7,2.9,1.7a9.4,9.4,0,0,0,1.9-1.38,37.46,37.46,0,0,0,6.3-7.84c7.11-11.37,12.07-23.72,16.21-36.39a342.62,342.62,0,0,0,10.33-39.4c.92-4.62,1.81-9.25,2.71-13.88.33-1.71.33-3.05-2.06-3.18-1.91-.1-3.78-.81-5.69-.94-1.44-.09-1.86-.81-2-2-.34-3-.65-6-1-8.95q-1.76-15.18-3.53-30.35c-.44-3.71-.49-3.71,3.12-3.26l6,1a3.66,3.66,0,0,0,.59.24c14.91,2.66,29.85,5.12,44.71,8.05,6.45,1.27,13.44.54,19.24,4.61.53,1.22,1.73,1.39,2.79,1.65a23.11,23.11,0,0,0,9.9.06c1.42-.28,3-.41,3.71-2,1.37-.85,2.33-2.25,4.1-2.61,19.75-4,39.32-8.87,58.94-13.47.45-.1,1.09,0,1-.8a3.46,3.46,0,0,0,2.46.14c2.1-.56,4.24-1,6.88-1.51-1.83,3.49-3.42,6.52-5,9.55q-6.75,13.08-13.45,26.16a3.65,3.65,0,0,1-3.38,2.36c-2.27.15-4.49.82-6.75,1.11-1,.13-1.45.43-1.46,1.39-.37-.83-.92-.85-1.82-.73-3.25.45-6.37,1.81-9.73,1.49.81-5.34-1-9.38-5.8-12a39.18,39.18,0,0,1-6.56-4.83c-1.15-1-2.45-1.64-3.92-.91a4.14,4.14,0,0,0-2.25,3.87c-.11,2.61,1.1,4.67,2.66,6.61,1.72,2.12,1.66,2.5-.43,4.3a4.43,4.43,0,0,1-2.29,1.05c-3.25.52-6.53.93-9.73,1.68a17,17,0,0,1-11-1.13c-5.32-2.28-10.6-4.65-15.9-7-1.51-.67-3.48-1.27-4.37.12-1.54,2.39-2.86,1.21-4.42.44a16.43,16.43,0,0,0-2.59-1c-2.26-.64-3.56.05-4.26,2.27a1.35,1.35,0,0,1-.84,1.05c-2.42,1.08-2.65,2.75-.54,4.5q10.06,8.39,20.21,16.68a12.5,12.5,0,0,0,4.8,2.78c4.37,1.07,8.73,2.24,13.27,2.35q6.43.17,12.88.37c0,9.89-.05,19.79,0,29.68q0,39.58,0,79.16H149q0-53.5.05-107"/><path class="cls-3" d="M235.56,417.4l-.05,5.57H179.15q0-39.59,0-79.16c0-9.89,0-19.79,0-29.68l10,0,.89,2.45a6.37,6.37,0,0,0,.11,2.34c1.71,8.06,4.12,15.92,6.52,23.79,6.26,20.55,14,40.47,25.38,58.79C225.73,407.43,229.63,413.3,235.56,417.4Z"/><path class="cls-3" d="M64.82,17.27,85.12,13c4.1-.87,8.19-1.77,12.28-2.65a77.74,77.74,0,0,0,9.56-2c6.22-.88,12.29-2.48,18.43-3.75,6.84-1.42,13.67-2.91,20.49-4.42,2-.44,3.82.2,5.69.56,2.59.5,5.17,1.06,7.75,1.58,6.73,1.41,13.46,2.84,20.19,4.23,5.87,1.21,11.75,2.37,17.62,3.55.83.19,1.64.4,2.47.57l26.79,5.49,4.07,1,0,.35c-2.64.34-5.27.67-7.9,1-4,.56-8.06,1.21-12.11,1.67-1.28.14-1.69.49-1.68,1.79q.08,15.71,0,31.4a1.93,1.93,0,0,0,1,1.93,3.34,3.34,0,0,1,1.51,4.09,4.39,4.39,0,0,0-1.18,3.87c1,6.8,1.2,13.67,1.72,20.51.23,3.06.41,6.13.74,9.19.15,1.42-.08,2.15-1.72,2.07-2-.1-4-.08-6,0-1.35.07-1.75-.43-1.66-1.73.28-4,.48-8,.71-12,.76-6.46.78-13,1.8-19.41.1-.59-.38-.88-.67-1.28-1.35-1.93-1.26-3.64.57-5.09A2.79,2.79,0,0,0,206.73,53c0-6,0-12,0-18,0-4.15-.07-8.3,0-12.45,0-1.58-.41-2-2-1.61a35.26,35.26,0,0,1-4.24.65c-5.73.76-11.47,1.49-17.2,2.28-1,.13-2.2.05-1.94,1.79.68,4.67,1.21,9.36,1.85,14,.83,6,1.52,11.87-.11,17.84a14.87,14.87,0,0,0-.89,5.89,3.72,3.72,0,0,0-.93,2.12c-.86,3.66-1.76,7.32-2.64,11a198.51,198.51,0,0,0-3.06-23c-8.95,3.28-17.8,6.5-26.63,9.78a4.12,4.12,0,0,1-3.05,0q-11.52-4.08-23.06-8.08c-5-1.73-4.89-1.7-5.68,3.66-.85,5.8-1.16,11.65-1.84,17.49-.47-1.36-.74-2.76-1.19-4.1-.94-2.82-.94-5.92-2.47-8.57a62,62,0,0,0-1.9-10.26c-1.06-4.3-.11-8.37.27-12.51.46-5.12,1.22-10.21,1.88-15.31.1-.82.09-1.32-1-1.46C100.71,22.69,90.5,21,80.21,19.83a36.28,36.28,0,0,0-6.38-1,4.26,4.26,0,0,0-2.23-.33,22.6,22.6,0,0,0-5.17-.78C65.89,17.6,65.23,17.84,64.82,17.27Z"/><path class="cls-3" d="M285,277.61c1.3,4.45,2.36,9,4,13.3,1,2.59.32,4.87-.1,7.28-2,6.41-3.94,12.82-5.89,19.23a624.06,624.06,0,0,1-24.51,66.25c-4.52,10.42-9.23,20.74-14.77,30.67-.83-1.38-.72-3-1.11-4.49q-7.77-29.62-15.46-59.27c-2-7.72-4.08-15.42-6.11-23.13-.58-2.21-1.17-4.42-1.74-6.63l-7.44-28.58c0-1,.5-1.26,1.46-1.39,2.26-.29,4.48-1,6.75-1.11a3.65,3.65,0,0,0,3.38-2.36q6.68-13.11,13.45-26.16c1.56-3,3.15-6.06,5-9.55-2.64.56-4.78,1-6.88,1.51a3.46,3.46,0,0,1-2.46-.14,24,24,0,0,1-8.14-5,2.19,2.19,0,0,0-2.3-.54,87.48,87.48,0,0,1-19.93,2.6c-4.21.16-8.42.22-12.62.73-3.48.43-6.83,1.46-10.31,1.84,0-5.15-.06-10.31-.06-15.47q0-27.39-.06-54.8c.37-.21.72-.46,1.1-.64l56.35-26.61c.77-.36,1.64-.58,2.08-1.42.94,0,1.36.87,2.08,1.23a27.64,27.64,0,0,1,9.47,13.85c11.64,36,23.27,71.95,34.44,108.07A4.71,4.71,0,0,0,285,277.61Z"/><path class="cls-3" d="M31.33,198c2.79-5.88,4.77-12.07,7.13-18.12,1.64-4.19,3.22-8.41,4.77-12.64A29,29,0,0,1,51.69,155c2.06-1,3.48-3.18,6.05-3.19A4,4,0,0,0,59.51,153q26.42,13.06,52.82,26.14c2.86,1.42,6,2.42,8.44,4.52,0,.78-.14,1.56-.15,2.34q0,20.55,0,41.11c0,.75.32,1.58-.35,2.23-.81-.84-1.62-1.69-2.42-2.54-.22-.37-.41-.76-.66-1.1-7.23-9.85-14.5-19.68-21.67-29.57-1.2-1.65-1.88-.39-2.74.15s-1.74,1-.69,2.44c5.81,7.7,11.51,15.49,17.22,23.27a6.15,6.15,0,0,1,1.62,2.69c-2.8-1.07-5.62-2.1-8.4-3.21-3.93-1.56-5.09-1.18-7.11,2.48-.51.92-.84,2.15-2.06,2.28-2.91.3-3.65,2.34-4.1,4.73-.29,1.52-.35,3.21-1.85,4.17C85.54,236.29,85,238,84.89,240s-.25,4.42-1.69,6.27c-3.52,1.54-7,3.11-10.56,4.61-.93.39-1,1.09-1,1.89q-.89,6.58-1.84,13.17-2.53,17.61-5.1,35.21c-.55,3.93-1.08,7.87-1.65,11.8-1.34,9.25-2.72,18.49-4.06,27.74q-1.87,12.93-3.7,25.85c-1.05,7.28-2.13,14.55-3.15,21.83-.58,4.17-1.07,8.35-1.59,12.53-.09.7,0,1.47-.83,1.8-5.78-8.65-10.5-17.89-15.08-27.2A533.8,533.8,0,0,1,3,294.93c0-.06-.06-.13-.08-.2-1.07-3.63-3-7.28-3-10.89s2.2-7,3.47-10.5c2.83-7.72,5.85-15.38,8.47-23.17,1.28-3.81,3.05-7.42,4.2-11.27q6-15.92,12-31.82C29.29,204.08,30.28,201,31.33,198Z"/><path class="cls-4" d="M189.13,314.1l-10,0q-6.43-.19-12.88-.37c-4.54-.11-8.9-1.28-13.27-2.35a12.5,12.5,0,0,1-4.8-2.78Q138.06,300.32,128,292c-2.11-1.75-1.88-3.42.54-4.5a1.35,1.35,0,0,0,.84-1.05c.7-2.22,2-2.91,4.26-2.27a16.43,16.43,0,0,1,2.59,1c1.56.77,2.88,1.95,4.42-.44.89-1.39,2.86-.79,4.37-.12,5.3,2.35,10.58,4.72,15.9,7a17,17,0,0,0,11,1.13c3.2-.75,6.48-1.16,9.73-1.68a4.43,4.43,0,0,0,2.29-1.05c2.09-1.8,2.15-2.18.43-4.3-1.56-1.94-2.77-4-2.66-6.61a4.14,4.14,0,0,1,2.25-3.87c1.47-.73,2.77-.1,3.92.91a39.18,39.18,0,0,0,6.56,4.83c4.8,2.66,6.61,6.7,5.8,12a5.28,5.28,0,0,0,.69.79,12,12,0,0,1,1.21,17.54,6.07,6.07,0,0,1-2.87,1.77A39.29,39.29,0,0,1,189.13,314.1Z"/><path class="cls-5" d="M179.17,252.66c3.48-.38,6.83-1.41,10.31-1.84,4.2-.51,8.41-.57,12.62-.73a87.48,87.48,0,0,0,19.93-2.6,2.19,2.19,0,0,1,2.3.54,24,24,0,0,0,8.14,5c.11.8-.53.7-1,.8-19.62,4.6-39.19,9.45-58.94,13.47-1.77.36-2.73,1.76-4.1,2.61-4.29-3.56-9.06-3.73-14.06-1.88-1,.38-2.18.81-2.34,2.21-5.8-4.07-12.79-3.34-19.24-4.61-14.86-2.93-29.8-5.39-44.71-8.05a3.66,3.66,0,0,1-.59-.24,21.55,21.55,0,0,0,6.4-4.9,2.21,2.21,0,0,1,2.38-.92c7.47,1.62,15.08,1.7,22.68,1.91l3-.07c3.24.21,6.5-.08,10.09.59l-3.67-4.79c1.59.21,3-.59,4.43-.91a18.78,18.78,0,0,1,3.37,5.43,1.68,1.68,0,0,0,1.52,1.2,69.39,69.39,0,0,1,9.68,2.77l1.69.57c3.35,1.72,6.85,3.17,9.89,5.44a.93.93,0,0,0,1.44-.12c5.23-5.09,11.56-8.26,18.38-10.58l.45-.38Z"/><path class="cls-4" d="M119,253.44c-7.6-.21-15.21-.29-22.68-1.91a2.21,2.21,0,0,0-2.38.92,21.55,21.55,0,0,1-6.4,4.9l-6-1a8.86,8.86,0,0,1,.11-5.64c.45-1.5,1.53-2.75,1.61-4.37,1.44-1.85,1.55-4.1,1.69-6.27s.65-3.75,2.49-4.91c1.5-1,1.56-2.65,1.85-4.17.45-2.39,1.19-4.43,4.1-4.73,1.22-.13,1.55-1.36,2.06-2.28,2-3.66,3.18-4,7.11-2.48,2.78,1.11,5.6,2.14,8.4,3.21a25,25,0,0,0,6.92,2.12c.8.85,1.61,1.7,2.42,2.54,1.22,1.51,2,3.4,3.83,4.36.14,1.25,1.18,2,1.92,2.69,1.85,1.77,2.86,4.39,5.41,5.45.53,2.12,2.42,4,1.37,6.42-1.47.32-2.84,1.12-4.43.91-.76-.27-1.1-1.3-2.08-1.23-.23,3.17-1,4.06-3.93,4.74C121.2,252.88,119.39,250.05,119,253.44ZM115.9,238l.46.41.41.42c.13.17.27.33.4.49l.43.43.43.43a2.09,2.09,0,0,0,.24.23c.27-.2,0-.28-.09-.38l-.43-.44-.43-.44-.56-.72h-.44c.14-.31-.06-.45-.28-.59l-.35-.51-.42-.43-.41-.44-.46-.4-.47-.41-.46-.17.23.41.43.43.43.43.44.42.44.42Zm4.75,4.28.17.22s0-.1,0-.13a.6.6,0,0,0-.16-.08l-.42-.44-.43-.43-.42-.36-.14.25.54.13.44.43Z"/><path class="cls-6" d="M83.2,246.31c-.08,1.62-1.16,2.87-1.61,4.37a8.86,8.86,0,0,0-.11,5.64c-3.61-.45-3.56-.45-3.12,3.26q1.8,15.17,3.53,30.35c-5.28,3.73-10.63,7.37-15.6,11.52-.54-.13-1.42,1.88-1.64-.26q2.55-17.61,5.1-35.21,1-6.59,1.84-13.17c.1-.8.12-1.5,1-1.89C76.17,249.42,79.68,247.85,83.2,246.31Z"/><path class="cls-6" d="M189.13,314.1a39.29,39.29,0,0,0,10.14-1,6.07,6.07,0,0,0,2.87-1.77,12,12,0,0,0-1.21-17.54,5.28,5.28,0,0,1-.69-.79c3.36.32,6.48-1,9.73-1.49.9-.12,1.45-.1,1.82.73l7.44,28.58c.57,2.21,1.16,4.42,1.74,6.63-.21,1.64-1.26.15-1.81.49-2.59-.74-5.19-1.44-7.76-2.21-6.3-1.89-12.88-2.88-18.88-5.75l-2.5-3.43C189.73,315.73,189.43,314.92,189.13,314.1Z"/><path class="cls-7" d="M152.05,270.25c.16-1.4,1.3-1.83,2.34-2.21,5-1.85,9.77-1.68,14.06,1.88-.71,1.63-2.29,1.76-3.71,2a23.11,23.11,0,0,1-9.9-.06C153.78,271.64,152.58,271.47,152.05,270.25Z"/><path class="cls-8" d="M120.77,183.66c-2.49-2.1-5.58-3.1-8.44-4.52Q85.95,166,59.51,153a4,4,0,0,1-1.77-1.15c.19-.67.79-.75,1.31-1,4.76-1.94,9.51-3.91,14.26-5.86,8.78-3,17.31-6.65,25.83-10.29l1.3-.48.48-.39c3.41-.52,6.33-2.42,9.6-3.37a6,6,0,0,1,2.26-.46c.59,1,.84,2.15,1.74,2.95,2.8,2.68,4.68,6.09,7,9.14,8.41,11.07,16.58,22.31,24.84,33.48.65.87,1.06,1.94,2.25.29,7.8-10.8,15.75-21.5,23.53-32.32,2.71-3.76,5.7-7.34,8-11.37,2.22-3.16,4.51-1.53,7.11-.38,7.08,3.14,14.29,6,21.44,9,2,.85,4,1.78,6,2.7a9.16,9.16,0,0,0,3.86,1.15,79,79,0,0,0,15.5,6.52c1.09,1.54,3.24,1.22,4.46,2.55-.44.84-1.31,1.06-2.08,1.42l-56.35,26.61c-.38.18-.73.43-1.1.64l-30,14.15-1.21.3c-5.3-3.1-11-5.41-16.44-8.19C127.88,186.88,124.55,184.79,120.77,183.66Z"/><path class="cls-4" d="M111.68,63.62c1.53,2.65,1.53,5.75,2.47,8.57.45,1.34.72,2.74,1.19,4.1.68-5.84,1-11.69,1.84-17.49.79-5.36.72-5.39,5.68-3.66q11.54,4,23.06,8.08a4.12,4.12,0,0,0,3.05,0c8.83-3.28,17.68-6.5,26.63-9.78a198.51,198.51,0,0,1,3.06,23c.88-3.66,1.78-7.32,2.64-11a3.72,3.72,0,0,1,.93-2.12c3.1,0,4.43,1.28,4.7,4.46.42,5-1,9.68-2.26,14.4-1.26,2.48-2.17,5.52-4.89,6.54s-3.3,2.88-3.89,5.18a45.72,45.72,0,0,1-4.36,11.16,4.62,4.62,0,0,0-.59,2c-1.09.4-1.53,1.43-2.16,2.27a37.41,37.41,0,0,1-14.68,12.21c-2.88,1.27-5.83,2.29-9.12,1.64-7.47-1.49-13-6-17.93-11.41-1.2-1.3-1.9-3.06-3.59-3.9a4.7,4.7,0,0,0-.38-1.44c-3-4.73-4.51-10-5.79-15.36-.18-.75-.38-1.36-1.21-1.55-3.56-.81-5.29-3.67-6.48-6.6A31.14,31.14,0,0,1,107,68C107.45,63.73,108.71,63.34,111.68,63.62Z"/><path class="cls-6" d="M180.18,132.2c-2.34,4-5.33,7.61-8,11.37-7.78,10.82-15.73,21.52-23.53,32.32-1.19,1.65-1.6.58-2.25-.29-8.26-11.17-16.43-22.41-24.84-33.48-2.32-3.05-4.2-6.46-7-9.14-.3-.85.41-1.31.75-1.89,2.12-3.62,4.27-7.22,6.42-10.82h.07a1,1,0,0,1,1.48-.56,1.42,1.42,0,0,0,.25.34l22.72,16.21a1.8,1.8,0,0,0,2.49,0c1.8-1.42,3.66-2.76,5.5-4.12l17.26-12.75c.92,0,1,.89,1.41,1.44C175.32,124.6,177.74,128.41,180.18,132.2Z"/><path class="cls-9" d="M171.46,119.38,154.2,132.13c-1.84,1.36-3.7,2.7-5.5,4.12a1.8,1.8,0,0,1-2.49,0l-22.72-16.21a1.42,1.42,0,0,1-.25-.34c.18-3.92-.23-7.85.22-11.76,1.69.84,2.39,2.6,3.59,3.9,5,5.39,10.46,9.92,17.93,11.41,3.29.65,6.24-.37,9.12-1.64a37.41,37.41,0,0,0,14.68-12.21c.63-.84,1.07-1.87,2.16-2.27,0,3.35,0,6.69.08,10C171,117.93,170.72,118.77,171.46,119.38Z"/><path class="cls-1" d="M219.16,327.94c.55-.34,1.6,1.15,1.81-.49,2,7.71,4.09,15.41,6.11,23.13q7.72,29.63,15.46,59.27c.39,1.49.28,3.11,1.11,4.49-2.35,4.53-3.87,5.1-8.09,3.06-5.93-4.1-9.83-10-13.53-15.93-11.39-18.32-19.12-38.24-25.38-58.79-2.4-7.87-4.81-15.73-6.52-23.79a6.37,6.37,0,0,1-.11-2.34l2.5,3.43c.36,1.82.63,3.66,1.09,5.45a326.68,326.68,0,0,0,14.59,44.62c5.52,13.31,11.72,26.28,20.45,37.87,2.27,3,4.67,6,8,8,1,.62,2.12,1.27,3.4.52s1.15-1.87,1.14-3a13,13,0,0,0-.35-3c-3-11.55-5.88-23.13-8.91-34.67C227.7,359.83,223.41,343.89,219.16,327.94Z"/><path class="cls-10" d="M121.69,120.27c-2.15,3.6-4.3,7.2-6.42,10.82-.34.58-1,1-.75,1.89-.9-.8-1.15-2-1.74-2.95,2.44-1.87,5-3.61,5-7.2,0-.07,0-.14,0-.21C120,123.36,119.55,119.66,121.69,120.27Z"/><path class="cls-11" d="M100.92,133.86l-.48.39Z"/><path class="cls-1" d="M149,196.54l30-14.15q0,27.41.06,54.8c0,5.16,0,10.32.06,15.47l0-.07-.45.38c-6.82,2.32-13.15,5.49-18.38,10.58a.93.93,0,0,1-1.44.12c-3-2.27-6.54-3.72-9.89-5.44,0-.71.06-1.43.06-2.14,0-18.46,0-36.93,0-55.39C149.05,199.32,149.93,197.91,149,196.54Z"/><path class="cls-1" d="M120.77,183.66c3.78,1.13,7.11,3.22,10.59,5,5.45,2.78,11.14,5.09,16.44,8.19a2.12,2.12,0,0,0-.49,1.79l0,59a69.39,69.39,0,0,0-9.68-2.77,1.68,1.68,0,0,1-1.52-1.2,18.78,18.78,0,0,0-3.37-5.43c1-2.46-.84-4.3-1.37-6.42,2.55-3.87,1.32-6.94-3.11-7.76a13,13,0,0,0-4.22-.38c-1.83-1-2.61-2.85-3.83-4.36.67-.65.35-1.48.35-2.23q0-20.55,0-41.11C120.63,185.22,120.72,184.44,120.77,183.66Z"/><path class="cls-5" d="M117.82,226.8a25,25,0,0,1-6.92-2.12,6.15,6.15,0,0,0-1.62-2.69c-5.71-7.78-11.41-15.57-17.22-23.27-1-1.4-.25-1.85.69-2.44s1.54-1.8,2.74-.15c7.17,9.89,14.44,19.72,21.67,29.57C117.41,226,117.6,226.43,117.82,226.8Z"/><path class="cls-3" d="M147.34,257.66l0-59a2.12,2.12,0,0,1,.49-1.79l1.21-.3c.92,1.37,0,2.78.05,4.16.06,18.46,0,36.93,0,55.39,0,.71,0,1.43-.06,2.14Z"/><path class="cls-12" d="M122.33,252.68c3-.68,3.7-1.57,3.93-4.74,1-.07,1.32,1,2.08,1.23L132,254c-3.59-.67-6.85-.38-10.09-.59Z"/><path class="cls-3" d="M122.33,252.68l-.41.69-3,.07C119.39,250.05,121.2,252.88,122.33,252.68Z"/><path class="cls-3" d="M178.74,253l.45-.38Z"/><path class="cls-9" d="M124.07,233.7a13,13,0,0,1,4.22.38c4.43.82,5.66,3.89,3.11,7.76-2.55-1.06-3.56-3.68-5.41-5.45C125.25,235.67,124.21,235,124.07,233.7Z"/><path class="cls-13" d="M119.77,241.42l-.54-.13.14-.25.42.36Z"/><path class="cls-13" d="M117.17,239.3c-.13-.16-.27-.32-.4-.49a2.64,2.64,0,0,1,0-.4l.56.72Z"/><path class="cls-11" d="M116.76,238.41a2.64,2.64,0,0,0,0,.4l-.41-.42,0,0Z"/><path class="cls-13" d="M117.6,239.73l-.43-.43.15-.17c.14.15.28.3.43.44Z"/><path class="cls-13" d="M117.75,239.57l.43.44-.15.15-.43-.43Z"/><path class="cls-13" d="M118.18,240c.13.1.36.18.09.38a2.09,2.09,0,0,1-.24-.23Z"/><path class="cls-13" d="M120.22,241.83l.42.44h0l-.44-.41Z"/><path class="cls-13" d="M120.64,242.27a.6.6,0,0,1,.16.08s0,.09,0,.13l-.17-.22Z"/><path class="cls-13" d="M119.79,241.4l.43.43v0l-.44-.43Z"/><path class="cls-11" d="M113.7,235.88l-.23-.41.46.17Z"/><path class="cls-11" d="M114.56,236.74l-.43-.43.27-.26.46.4Z"/><path class="cls-11" d="M115,237.16l-.44-.42.3-.29c.14.15.28.29.41.44Z"/><path class="cls-11" d="M115.44,237.58l-.44-.42.27-.27.42.43Z"/><path class="cls-11" d="M115.69,237.32l.35.52-.14.14-.46-.4Z"/><path class="cls-11" d="M116.36,238.39l-.46-.41.14-.14c.22.13.42.27.28.58Z"/><path class="cls-11" d="M113.93,235.64l.47.41-.27.26-.43-.43Z"/><path class="cls-3" d="M219.16,327.94c4.25,15.95,8.54,31.89,12.73,47.86,3,11.54,5.93,23.12,8.91,34.67a13,13,0,0,1,.35,3c0,1.16.08,2.32-1.14,3s-2.39.1-3.4-.52c-3.29-2-5.69-5-8-8-8.73-11.59-14.93-24.56-20.45-37.87a326.68,326.68,0,0,1-14.59-44.62c-.46-1.79-.73-3.63-1.09-5.45,6,2.87,12.58,3.86,18.88,5.75C214,326.5,216.57,327.2,219.16,327.94Z"/><path class="cls-11" d="M220.46,144.61l-.09.16.08-.17Z"/><path class="cls-7" d="M244.54,149.34l.1-.17-.09.17Z"/><path class="cls-7" d="M237.67,151.92l.16.09-.17-.09Z"/><path class="cls-3" d="M120.65,307.22,147.14,314H148l7.69-2,2.92.78-9.55,3.2q0,53.51-.05,107h-1.72q0-53.5,0-107l-26.71-6.32q0,47.43,0,94.85,0,9.24,0,18.49H57.41q0-9.23,0-18.44c7.5-6.93,11.78-15.95,15.85-25C82.83,358,88.42,335.33,93,312.35c.53-2.66,1-5.34,1.39-8L92.71,304c-.9,4.63-1.9,10.24-2.82,14.86a342.62,342.62,0,0,1-10.33,39.4c-4.14,12.67-9.1,25-16.21,36.39a37.46,37.46,0,0,1-6.3,7.84,9.4,9.4,0,0,1-1.9,1.38c-1.89,1-2.87.44-2.9-1.7a65.9,65.9,0,0,1,1-9.8c1.34-9.83,2.76-19.65,4.18-29.47,1.31-9,2.69-18.08,4-27.12,1.27-8.69,2.49-17.38,3.74-26.07a71.88,71.88,0,0,0,1.12-8.26c5-4.15,10.32-7.79,15.6-11.52.32,3,.63,6,1,8.95.13,1.17.55,1.89,2,2,1.91.13,3.78.84,5.69.94l6,1.07"/><path class="cls-14" d="M158.64,312.75c4.3.1,16.3,1.32,20.6,1.52v108.9h-30.1c0-35.7,0-71.3.1-107"/><path class="cls-14" d="M94.44,304.37c-.4,2.7-.9,5.4-1.4,8-4.6,23-10.2,45.7-19.8,67.2-4.1,9.1-8.3,18.1-15.9,25-3.7,2.6-5.4,2.3-7.7-1.8.9-.3.7-1.1.8-1.8.5-4.2,1-8.4,1.6-12.5,1-7.3,2.1-14.5,3.1-21.8,1.2-8.6,2.5-17.2,3.7-25.9,1.3-9.2,2.7-18.5,4.1-27.7.6-3.9,1.1-7.9,1.7-11.8.2,2.1,1.1.1,1.6.3a78.62,78.62,0,0,1-1.1,8.3c-1.3,8.7-2.5,17.4-3.7,26.1-1.3,9-2.7,18.1-4,27.1-1.4,9.8-2.8,19.6-4.2,29.5-.4,3.3-1.1,6.5-1,9.8,0,2.1,1,2.7,2.9,1.7a13.3,13.3,0,0,0,1.9-1.4,39.18,39.18,0,0,0,6.3-7.8c7.1-11.4,12.1-23.7,16.2-36.4a335.52,335.52,0,0,0,10.3-39.4c.9-4.6,2-10.47,2.87-15.07"/><path class="cls-10" d="M137.74,254.93a68.43,68.43,0,0,1,9.68,2.77l1.69.57c3.35,1.72,6.84,3.17,9.89,5.44a.92.92,0,0,0,1.43-.13c5.23-5.08,11.57-8.25,18.39-10.57l.45-.39,0,.08c3.47-.39,6.82-1.42,10.3-1.84,4.2-.51,8.42-.57,12.63-.73a87.63,87.63,0,0,0,19.93-2.6,2.19,2.19,0,0,1,2.29.53,24.23,24.23,0,0,0,8.14,5c.11.8-.52.69-1,.8-19.62,4.6-39.18,9.45-58.94,13.46-1.77.36-2.72,1.76-4.09,2.62-4.29-3.57-9.06-3.73-14.06-1.89-1,.38-2.19.82-2.34,2.21-5.8-4.06-12.79-3.33-19.25-4.61-14.85-2.93-29.79-5.39-44.7-8a2.55,2.55,0,0,1-.59-.25A21.19,21.19,0,0,0,94,252.49a2.24,2.24,0,0,1,2.38-.93c7.47,1.63,15.09,1.7,22.69,1.91l2.94-.06c3.25.2,6.51-.09,10.1.59Z"/></g></g></svg>